<svg width="155" height="43" viewBox="0 0 155 43" fill="none" xmlns="http://www.w3.org/2000/svg">
<path d="M31.0858 26.64C31.0858 27.68 30.3792 28.3733 28.9658 28.72C28.8858 28.72 28.8458 28.6667 28.8458 28.56C28.8458 28.4533 28.9392 28.3333 29.1258 28.2C29.6592 27.8 29.9258 27.36 29.9258 26.88C29.9258 25.9467 29.1792 25.2667 27.6858 24.84C25.7125 27.2667 22.9658 29.28 19.4458 30.88C15.9525 32.48 12.8458 33.28 10.1258 33.28C7.40583 33.28 6.04583 32.72 6.04583 31.6C6.04583 30.6667 6.96583 29.56 8.80583 28.28C10.6725 26.9733 13.0592 25.84 15.9658 24.88C18.8992 23.8933 21.6592 23.4 24.2458 23.4C25.5258 23.4 26.6192 23.4933 27.5258 23.68C28.3525 22.2133 28.7658 20.68 28.7658 19.08C28.7658 18.1467 28.3525 17.3733 27.5258 16.76C26.6992 16.12 25.5925 15.8 24.2058 15.8C22.8192 15.8 21.4992 16.08 20.2458 16.64C19.9792 16.8267 19.7658 16.92 19.6058 16.92C19.3125 16.92 19.1658 16.8533 19.1658 16.72C19.1658 16.56 19.3658 16.3733 19.7658 16.16C20.3525 15.9733 21.4725 15.2533 23.1258 14C24.8058 12.7467 26.4325 11.2267 28.0058 9.44C29.6058 7.62667 30.4058 6.10667 30.4058 4.88C30.4058 2.88 28.2458 1.88 23.9258 1.88C20.8858 1.88 17.6458 2.50667 14.2058 3.76C10.7925 4.98667 7.9125 6.6 5.56583 8.6C3.21916 10.5733 2.04583 12.5067 2.04583 14.4C2.04583 15.4133 2.67249 15.92 3.92583 15.92C5.7125 15.92 7.4725 15.48 9.20583 14.6C10.9392 13.6933 13.2058 12.0667 16.0058 9.72C16.3525 9.32 16.5925 9.12 16.7258 9.12C17.0192 9.12 17.1658 9.21333 17.1658 9.4C17.1658 9.45333 17.0725 9.64 16.8858 9.96C16.1925 10.6533 15.2192 11.4933 13.9658 12.48C12.7125 13.4667 11.5525 14.2933 10.4858 14.96C9.41916 15.6267 8.20583 16.2267 6.84583 16.76C5.5125 17.2933 4.29916 17.56 3.20583 17.56C1.31249 17.56 0.365828 16.72 0.365828 15.04C0.365828 12.8533 1.79249 10.6133 4.64583 8.32C7.49916 6 10.8458 4.13333 14.6858 2.72C18.5525 1.28 22.0058 0.559998 25.0458 0.559998C29.8725 0.559998 32.2858 1.74666 32.2858 4.12C32.2858 5.85333 31.1258 7.90667 28.8058 10.28C26.5125 12.6267 24.4458 14.24 22.6058 15.12C23.4325 14.96 24.2058 14.88 24.9258 14.88C26.6058 14.88 27.8992 15.2 28.8058 15.84C29.7125 16.48 30.1658 17.3467 30.1658 18.44C30.1658 20.3067 29.5658 22.1333 28.3658 23.92C30.1792 24.4533 31.0858 25.36 31.0858 26.64ZM23.8058 24.36C21.7792 24.36 19.4858 24.7867 16.9258 25.64C14.3658 26.4933 12.2192 27.4667 10.4858 28.56C8.77916 29.6533 7.92583 30.5333 7.92583 31.2C7.92583 31.8933 8.73916 32.24 10.3658 32.24C12.0192 32.24 13.8192 31.9733 15.7658 31.44C17.7392 30.9333 19.7925 30.08 21.9258 28.88C24.0858 27.6533 25.7392 26.24 26.8858 24.64C25.8725 24.4533 24.8458 24.36 23.8058 24.36ZM24.2458 4.44C24.2458 4.52 22.6858 7.24 19.5658 12.6C16.4725 17.96 14.1925 21.8667 12.7258 24.32C12.5658 24.6667 12.2725 24.9333 11.8458 25.12C11.4192 25.3067 11.0858 25.4 10.8458 25.4C10.6325 25.4 10.5258 25.3467 10.5258 25.24C10.5258 25.1067 11.5125 23.3867 13.4858 20.08C15.4592 16.7467 17.4192 13.44 19.3658 10.16C21.3392 6.88 22.2992 5.22667 22.2458 5.2C22.4058 4.93333 22.6725 4.73333 23.0458 4.6L24.0458 4.28L24.2458 4.44ZM38.037 29.6C38.037 29.3067 38.2503 28.8133 38.677 28.12C39.1303 27.4267 39.4236 26.9867 39.557 26.8C39.717 26.6133 39.9436 26.32 40.237 25.92C37.0636 28.8 34.877 30.24 33.677 30.24C33.0103 30.24 32.677 29.96 32.677 29.4C32.677 28.6 34.0236 26.3467 36.717 22.64C36.8503 22.4267 37.0236 22.32 37.237 22.32C37.8503 22.5067 38.157 22.64 38.157 22.72C38.157 22.8 38.077 22.96 37.917 23.2C35.6236 26.2933 34.477 28.04 34.477 28.44C34.477 28.8133 34.6103 29 34.877 29C35.6236 29 36.9436 28.1467 38.837 26.44C40.757 24.7067 42.1436 23.28 42.997 22.16C43.1036 21.9733 43.277 21.88 43.517 21.88C44.0503 21.9867 44.317 22.0933 44.317 22.2C44.0236 22.6267 43.6236 23.1867 43.117 23.88C42.6103 24.5733 42.197 25.1467 41.877 25.6C41.557 26.0267 41.2236 26.4933 40.877 27C40.2103 27.9067 39.8103 28.5733 39.677 29C39.677 29.2667 39.8903 29.4 40.317 29.4C40.7703 29.4 41.557 29.1467 42.677 28.64C43.797 28.1067 44.7836 27.5733 45.637 27.04L46.917 26.24C46.9436 26.2933 46.957 26.4 46.957 26.56C46.957 26.72 46.837 26.8533 46.597 26.96C42.997 29.4133 40.4903 30.64 39.077 30.64C38.3836 30.64 38.037 30.2933 38.037 29.6ZM55.7047 27.2C54.878 27.7067 53.918 27.96 52.8247 27.96H52.3447C51.6247 28.7867 50.8513 29.4667 50.0247 30C49.2247 30.5067 48.5313 30.76 47.9447 30.76C47.118 30.76 46.7047 30.2267 46.7047 29.16C46.7047 28.0933 47.278 26.8533 48.4247 25.44C48.318 25.1467 48.2647 24.7867 48.2647 24.36C48.2647 23.4267 48.6647 22.6267 49.4647 21.96C50.2913 21.2667 51.0913 20.92 51.8647 20.92C53.4913 20.92 54.3047 21.8 54.3047 23.56C54.3047 24.7333 53.798 26.0133 52.7847 27.4H53.2647C54.118 27.4 54.8513 27.2 55.4647 26.8C55.5447 26.72 55.6513 26.68 55.7847 26.68C55.918 26.68 55.9847 26.7333 55.9847 26.84C55.9847 26.92 55.8913 27.04 55.7047 27.2ZM51.8647 22.6C51.998 22.5467 52.1047 22.52 52.1847 22.52C52.2647 22.52 52.3047 22.5867 52.3047 22.72C52.3047 22.8267 52.158 22.9867 51.8647 23.2C50.798 24.0267 49.998 24.7733 49.4647 25.44C50.0513 26.3733 50.9447 26.9867 52.1447 27.28C53.1847 26.0533 53.7047 24.9067 53.7047 23.84C53.7047 23.2267 53.5047 22.76 53.1047 22.44C52.7047 22.12 52.1847 21.96 51.5447 21.96C50.9313 21.96 50.358 22.1467 49.8247 22.52C49.2913 22.8667 49.0247 23.2533 49.0247 23.68C49.0247 24.08 49.0647 24.4 49.1447 24.64C49.9713 23.7867 50.878 23.1067 51.8647 22.6ZM48.9047 26.32C48.478 27.04 48.2647 27.84 48.2647 28.72C48.2647 29.2 48.478 29.44 48.9047 29.44C49.6247 29.44 50.518 28.9067 51.5847 27.84C50.3847 27.6267 49.4913 27.12 48.9047 26.32ZM56.3193 26.96C56.8259 26.6667 57.4926 26.2 58.3193 25.56C60.3459 23.96 61.4259 23.16 61.5593 23.16C61.9593 23.16 62.1593 23.3333 62.1593 23.68C62.1593 24.0267 61.9459 24.56 61.5193 25.28C61.1193 26 60.6526 26.7467 60.1193 27.52C59.6126 28.2933 59.3193 28.76 59.2393 28.92C59.2659 28.9467 59.3193 28.96 59.3993 28.96C59.5059 28.96 60.0393 28.6133 60.9993 27.92C61.9593 27.2 62.9593 26.4533 63.9993 25.68C65.0393 24.88 65.6526 24.4267 65.8393 24.32C66.0259 24.1867 66.1993 24.12 66.3593 24.12C66.6793 24.1467 66.8393 24.3333 66.8393 24.68C66.8393 24.8133 66.3859 25.4933 65.4793 26.72C64.5726 27.92 64.1193 28.6933 64.1193 29.04C64.1193 29.28 64.3993 29.4 64.9593 29.4C65.5459 29.4 66.3993 29.1467 67.5193 28.64C68.6393 28.1067 69.6259 27.5733 70.4793 27.04L71.7593 26.24C71.7859 26.2933 71.7993 26.4 71.7993 26.56C71.7993 26.72 71.6793 26.8533 71.4393 26.96C67.8393 29.4133 65.3326 30.64 63.9193 30.64C63.0926 30.64 62.6793 30.32 62.6793 29.68C62.6793 29.0667 62.8526 28.48 63.1993 27.92C63.5726 27.36 63.8926 26.8933 64.1593 26.52C64.4259 26.12 64.5593 25.9067 64.5593 25.88C63.3326 26.76 61.8793 27.8133 60.1993 29.04C58.5193 30.2667 57.5726 30.88 57.3593 30.88C57.1993 30.88 57.1193 30.6933 57.1193 30.32C57.1193 29.9467 57.6393 28.9733 58.6793 27.4C59.7459 25.8267 60.2793 24.9867 60.2793 24.88C60.2793 24.7733 60.2526 24.72 60.1993 24.72L59.7993 24.92L57.7993 26.52C57.6659 26.6267 57.4126 26.8 57.0393 27.04C56.6659 27.28 56.4259 27.4 56.3193 27.4C56.2393 27.4 56.1993 27.3467 56.1993 27.24C56.1993 27.1067 56.2393 27.0133 56.3193 26.96ZM98.715 19.08C96.395 21.6667 94.075 23.84 91.755 25.6C90.6083 26.4533 89.2883 27.24 87.795 27.96C86.3017 28.68 84.955 29.04 83.755 29.04C81.0083 29.04 79.635 27.7467 79.635 25.16C79.635 22.7333 80.2217 20.2667 81.395 17.76C82.5683 15.2267 84.0617 12.9733 85.875 11C87.715 9.02667 89.6883 7.25333 91.795 5.68C93.9017 4.08 95.9283 2.85333 97.875 2C99.8483 1.14666 101.502 0.719998 102.835 0.719998C104.568 0.719998 105.475 1.48 105.555 3C106.488 2.6 107.195 2.4 107.675 2.4C107.995 2.48 108.155 2.62667 108.155 2.84C108.155 3.05333 108.088 3.25333 107.955 3.44C107.822 3.62667 107.595 3.72 107.275 3.72C106.955 3.72 106.342 3.88 105.435 4.2C105.062 6.33333 103.808 8.34667 101.675 10.24C99.5417 12.1333 97.795 13.08 96.435 13.08C95.7417 13.08 95.395 12.76 95.395 12.12C95.395 10.8933 96.3683 9.42667 98.315 7.72C100.262 5.98667 102.328 4.57333 104.515 3.48V3.44C104.515 2.24 103.808 1.64 102.395 1.64C101.248 1.64 99.795 2.04 98.035 2.84C96.275 3.61333 94.435 4.74667 92.515 6.24C90.6217 7.70667 88.835 9.37333 87.155 11.24C85.5017 13.08 84.1283 15.2133 83.035 17.64C81.9683 20.04 81.435 22.4267 81.435 24.8C81.435 26.8533 82.4083 27.88 84.355 27.88C88.595 27.88 94.4083 23.4667 101.795 14.64C102.248 14.1067 102.648 13.84 102.995 13.84C103.342 13.84 103.515 13.88 103.515 13.96C103.515 14.0133 103.435 14.2 103.275 14.52C103.115 14.8133 102.195 16.2933 100.515 18.96C98.8617 21.6267 97.075 24.4933 95.155 27.56C90.195 35.56 87.5017 39.88 87.075 40.52C86.995 40.68 86.955 40.8133 86.955 40.92C86.955 41.0267 87.075 41.08 87.315 41.08L88.315 41C88.5283 41 88.635 41.04 88.635 41.12C88.635 41.2533 88.2483 41.5467 87.475 42C86.7017 42.4533 86.155 42.68 85.835 42.68C85.515 42.68 85.355 42.48 85.355 42.08C85.355 41.68 85.4883 41.08 85.755 40.28C86.0483 39.5067 87.2883 37.3867 89.475 33.92C91.6883 30.48 93.795 27.2267 95.795 24.16C97.8217 21.0667 98.835 19.4533 98.835 19.32C98.835 19.16 98.795 19.08 98.715 19.08ZM97.475 12C98.4617 12 99.7683 11.24 101.395 9.72C103.022 8.2 104.022 6.50667 104.395 4.64C102.555 5.49333 100.835 6.6 99.235 7.96C97.6617 9.32 96.875 10.48 96.875 11.44C96.875 11.8133 97.075 12 97.475 12ZM107.973 17.8C108.373 17.8 108.573 18 108.573 18.4C108.573 18.8 108.386 19.2133 108.013 19.64C107.64 20.04 107.226 20.24 106.773 20.24C106.4 20.24 106.213 19.9867 106.213 19.48C106.213 18.9467 106.426 18.5333 106.853 18.24C107.28 17.9467 107.653 17.8 107.973 17.8ZM104.213 23.08C104.346 22.8667 104.533 22.76 104.773 22.76C105.013 22.76 105.253 22.88 105.493 23.12C105.493 23.2267 105.32 23.4667 104.973 23.84C104.626 24.2133 104.04 25.0533 103.213 26.36C102.386 27.64 101.973 28.4933 101.973 28.92C101.973 29.1867 102.173 29.3467 102.573 29.4C103.106 29.4 103.933 29.1467 105.053 28.64C106.173 28.1067 107.16 27.5733 108.013 27.04L109.293 26.24C109.32 26.2933 109.333 26.4 109.333 26.56C109.333 26.72 109.213 26.8533 108.973 26.96C105.373 29.4133 102.866 30.64 101.453 30.64C100.76 30.64 100.413 30.2933 100.413 29.6C100.413 28.9067 100.786 27.9467 101.533 26.72C102.306 25.4667 103.2 24.2533 104.213 23.08ZM118.051 27.2C117.224 27.7067 116.264 27.96 115.171 27.96H114.691C113.971 28.7867 113.198 29.4667 112.371 30C111.571 30.5067 110.878 30.76 110.291 30.76C109.464 30.76 109.051 30.2267 109.051 29.16C109.051 28.0933 109.624 26.8533 110.771 25.44C110.664 25.1467 110.611 24.7867 110.611 24.36C110.611 23.4267 111.011 22.6267 111.811 21.96C112.638 21.2667 113.438 20.92 114.211 20.92C115.838 20.92 116.651 21.8 116.651 23.56C116.651 24.7333 116.144 26.0133 115.131 27.4H115.611C116.464 27.4 117.198 27.2 117.811 26.8C117.891 26.72 117.998 26.68 118.131 26.68C118.264 26.68 118.331 26.7333 118.331 26.84C118.331 26.92 118.238 27.04 118.051 27.2ZM114.211 22.6C114.344 22.5467 114.451 22.52 114.531 22.52C114.611 22.52 114.651 22.5867 114.651 22.72C114.651 22.8267 114.504 22.9867 114.211 23.2C113.144 24.0267 112.344 24.7733 111.811 25.44C112.398 26.3733 113.291 26.9867 114.491 27.28C115.531 26.0533 116.051 24.9067 116.051 23.84C116.051 23.2267 115.851 22.76 115.451 22.44C115.051 22.12 114.531 21.96 113.891 21.96C113.278 21.96 112.704 22.1467 112.171 22.52C111.638 22.8667 111.371 23.2533 111.371 23.68C111.371 24.08 111.411 24.4 111.491 24.64C112.318 23.7867 113.224 23.1067 114.211 22.6ZM111.251 26.32C110.824 27.04 110.611 27.84 110.611 28.72C110.611 29.2 110.824 29.44 111.251 29.44C111.971 29.44 112.864 28.9067 113.931 27.84C112.731 27.6267 111.838 27.12 111.251 26.32ZM118.985 27.32C118.878 27.3733 118.785 27.4 118.705 27.4C118.598 27.4 118.545 27.3467 118.545 27.24C118.545 27.1333 118.585 27.04 118.665 26.96C119.758 26.3467 120.958 25.3467 122.265 23.96C121.065 23.5867 120.465 23.0667 120.465 22.4C120.465 21.7067 120.918 20.9467 121.825 20.12C122.731 19.2667 123.585 18.84 124.385 18.84C124.918 18.84 125.185 19.16 125.185 19.8C125.185 20.7867 124.691 21.84 123.705 22.96C124.985 23.1733 125.625 23.48 125.625 23.88C125.625 24.4133 125.385 24.8267 124.905 25.12C124.451 25.3867 123.918 25.88 123.305 26.6C122.691 27.32 122.385 28.04 122.385 28.76C122.385 28.92 122.438 29.0667 122.545 29.2C122.651 29.3333 122.878 29.4 123.225 29.4C123.571 29.4 124.305 29.1467 125.425 28.64C126.545 28.1067 127.531 27.5733 128.385 27.04L129.665 26.24C129.691 26.2933 129.705 26.4 129.705 26.56C129.705 26.72 129.585 26.8533 129.345 26.96C125.745 29.4133 123.238 30.64 121.825 30.64C121.131 30.64 120.785 30.2933 120.785 29.6C120.785 29.04 120.971 28.4533 121.345 27.84C121.745 27.2267 122.171 26.72 122.625 26.32C123.105 25.92 123.531 25.5467 123.905 25.2C124.305 24.8267 124.505 24.5867 124.505 24.48C124.505 24.3733 124.331 24.3067 123.985 24.28C123.665 24.2533 123.238 24.1867 122.705 24.08C121.238 25.6533 119.998 26.7333 118.985 27.32ZM121.465 21.76C121.465 22.2933 122.051 22.6667 123.225 22.88C123.918 22.0267 124.265 21.2933 124.265 20.68C124.265 20.04 124.065 19.72 123.665 19.72C123.265 19.72 122.798 19.96 122.265 20.44C121.731 20.8933 121.465 21.3333 121.465 21.76ZM129.643 26.96C130.149 26.6667 130.816 26.2 131.643 25.56C133.669 23.96 134.749 23.16 134.883 23.16C135.283 23.16 135.483 23.3333 135.483 23.68C135.483 24.0267 135.269 24.56 134.843 25.28C134.443 26 133.976 26.7467 133.443 27.52C132.936 28.2933 132.643 28.76 132.563 28.92C132.589 28.9467 132.643 28.96 132.723 28.96C132.829 28.96 133.363 28.6133 134.323 27.92C135.283 27.2 136.283 26.4533 137.323 25.68C138.363 24.88 138.976 24.4267 139.163 24.32C139.349 24.1867 139.523 24.12 139.683 24.12C140.003 24.1467 140.163 24.3333 140.163 24.68C140.163 24.8133 139.709 25.4933 138.803 26.72C137.896 27.92 137.443 28.6933 137.443 29.04C137.443 29.28 137.723 29.4 138.283 29.4C138.869 29.4 139.723 29.1467 140.843 28.64C141.963 28.1067 142.949 27.5733 143.803 27.04L145.083 26.24C145.109 26.2933 145.123 26.4 145.123 26.56C145.123 26.72 145.003 26.8533 144.763 26.96C141.163 29.4133 138.656 30.64 137.243 30.64C136.416 30.64 136.003 30.32 136.003 29.68C136.003 29.0667 136.176 28.48 136.523 27.92C136.896 27.36 137.216 26.8933 137.483 26.52C137.749 26.12 137.883 25.9067 137.883 25.88C136.656 26.76 135.203 27.8133 133.523 29.04C131.843 30.2667 130.896 30.88 130.683 30.88C130.523 30.88 130.443 30.6933 130.443 30.32C130.443 29.9467 130.963 28.9733 132.003 27.4C133.069 25.8267 133.603 24.9867 133.603 24.88C133.603 24.7733 133.576 24.72 133.523 24.72L133.123 24.92L131.123 26.52C130.989 26.6267 130.736 26.8 130.363 27.04C129.989 27.28 129.749 27.4 129.643 27.4C129.563 27.4 129.523 27.3467 129.523 27.24C129.523 27.1067 129.563 27.0133 129.643 26.96ZM153.873 27.2C153.046 27.7067 152.086 27.96 150.993 27.96H150.513C149.793 28.7867 149.02 29.4667 148.193 30C147.393 30.5067 146.7 30.76 146.113 30.76C145.286 30.76 144.873 30.2267 144.873 29.16C144.873 28.0933 145.446 26.8533 146.593 25.44C146.486 25.1467 146.433 24.7867 146.433 24.36C146.433 23.4267 146.833 22.6267 147.633 21.96C148.46 21.2667 149.26 20.92 150.033 20.92C151.66 20.92 152.473 21.8 152.473 23.56C152.473 24.7333 151.966 26.0133 150.953 27.4H151.433C152.286 27.4 153.02 27.2 153.633 26.8C153.713 26.72 153.82 26.68 153.953 26.68C154.086 26.68 154.153 26.7333 154.153 26.84C154.153 26.92 154.06 27.04 153.873 27.2ZM150.033 22.6C150.166 22.5467 150.273 22.52 150.353 22.52C150.433 22.52 150.473 22.5867 150.473 22.72C150.473 22.8267 150.326 22.9867 150.033 23.2C148.966 24.0267 148.166 24.7733 147.633 25.44C148.22 26.3733 149.113 26.9867 150.313 27.28C151.353 26.0533 151.873 24.9067 151.873 23.84C151.873 23.2267 151.673 22.76 151.273 22.44C150.873 22.12 150.353 21.96 149.713 21.96C149.1 21.96 148.526 22.1467 147.993 22.52C147.46 22.8667 147.193 23.2533 147.193 23.68C147.193 24.08 147.233 24.4 147.313 24.64C148.14 23.7867 149.046 23.1067 150.033 22.6ZM147.073 26.32C146.646 27.04 146.433 27.84 146.433 28.72C146.433 29.2 146.646 29.44 147.073 29.44C147.793 29.44 148.686 28.9067 149.753 27.84C148.553 27.6267 147.66 27.12 147.073 26.32Z" fill="black"/>
</svg>
